<?xml version="1.0" encoding="UTF-8"?>
<svg version="1.1" xmlns="http://www.w3.org/2000/svg" width="1024" height="1024">
<path d="M0 0 C0 0.66 0 1.32 0 2 C0.66 2 1.32 2 2 2 C6.53894582 7.3550617 13 15.62794142 13 23 C13.66 23.33 14.32 23.66 15 24 C19.25850566 42.44234735 15.80953843 63.02729702 6 79 C-4.22278749 94.56453637 -17.26980817 107.67393239 -32 119 C-33.03769531 119.80824219 -34.07539062 120.61648438 -35.14453125 121.44921875 C-38.41357761 123.98747396 -41.70350104 126.49754824 -45 129 C-45.99 129.7528125 -46.98 130.505625 -48 131.28125 C-52.65724621 134.79895724 -57.3454814 138.26056442 -62.11181641 141.62841797 C-74.30023679 150.24570882 -85.81979917 159.35425877 -96.61474609 169.67773438 C-97.81291489 170.82142175 -99.02441367 171.95111357 -100.23828125 173.078125 C-116.54575488 188.63395155 -129.28132874 209.67554434 -130.23828125 232.57421875 C-130.63784702 250.94344488 -127.56262154 267.25708387 -120 284 C-119.57976562 284.96421875 -119.15953125 285.9284375 -118.7265625 286.921875 C-117.83585985 288.9559619 -116.92154147 290.97969754 -116 293 C-117 294 -117 294 -119.01171875 294.0546875 C-132.94206937 293.1192187 -144.83818549 287.38511065 -155.875 279.125 C-158.92144198 276.62512665 -158.92144198 276.62512665 -163 277 C-163.08894531 276.27039063 -163.17789063 275.54078125 -163.26953125 274.7890625 C-164.13487325 271.48502941 -165.44391598 269.93054904 -167.6875 267.375 C-178 255 -178 255 -178 249 C-178.66 248.67 -179.32 248.34 -180 248 C-180.79246757 245.51494132 -181.46188084 243.09461692 -182.0625 240.5625 C-182.2387793 239.83039307 -182.41505859 239.09828613 -182.59667969 238.34399414 C-183.86994485 232.89410636 -184.79685131 227.60351811 -185 222 C-185.0515625 220.91976562 -185.103125 219.83953125 -185.15625 218.7265625 C-186.11560526 181.23176102 -168.99982138 150.73423196 -143.9140625 123.99609375 C-140.95854817 120.90641336 -137.839532 118.06763577 -134.5234375 115.3671875 C-132.74200798 113.88249909 -132.74200798 113.88249909 -131 111 C-129.01441383 109.64529511 -127.0122084 108.31483654 -125 107 C-123.56540759 105.82367458 -122.13182291 104.64592509 -120.71459961 103.44873047 C-111.18205829 95.45024228 -100.82678664 88.64232025 -90.49438477 81.73852539 C-84.05456257 77.43424274 -77.64518672 73.09821149 -71.33203125 68.609375 C-70.47949013 68.00589737 -70.47949013 68.00589737 -69.60972595 67.39022827 C-65.65506899 64.55780221 -61.98935785 61.51604632 -58.453125 58.1796875 C-57 57 -57 57 -55 57 C-55 56.34 -55 55.68 -55 55 C-54.319375 54.505 -53.63875 54.01 -52.9375 53.5 C-47.09052137 48.52384797 -43.30006909 41.86014363 -40 35 C-84.47557093 33.99060331 -129.85232476 41.79312921 -163.9375 72.66015625 C-181.78266895 89.89917137 -192.4727222 112.30497883 -193.15234375 137.265625 C-193.27819165 145.69453799 -193.27819165 145.69453799 -192 154 C-201.51384511 152.53762451 -210.83892705 145.14161465 -218 139 C-219.11328125 137.00390625 -219.11328125 137.00390625 -220 135 C-221.03711397 133.66734959 -222.10230127 132.35629528 -223.1875 131.0625 C-234 117.43329832 -234 117.43329832 -234 111 C-234.66 110.67 -235.32 110.34 -236 110 C-236.7848967 107.10032501 -237.45751255 104.25002464 -238.0625 101.3125 C-238.23587891 100.50876953 -238.40925781 99.70503906 -238.58789062 98.87695312 C-243.41837578 76.24215102 -241.66015196 53.49052387 -228.8359375 33.65234375 C-226.94866862 31.0479127 -225.00148433 28.51680903 -223 26 C-222.34 25.01 -221.68 24.02 -221 23 C-220.34 23 -219.68 23 -219 23 C-218.64421875 22.14341797 -218.64421875 22.14341797 -218.28125 21.26953125 C-213.96902623 13.63111049 -204.41405421 7.43417473 -197 3 C-196.34 3 -195.68 3 -195 3 C-194.67 2.34 -194.34 1.68 -194 1 C-192.35636866 0.27840576 -190.68949614 -0.39351421 -189 -1 C-189 -1.66 -189 -2.32 -189 -3 C-188.14664063 -3.10957031 -187.29328125 -3.21914063 -186.4140625 -3.33203125 C-182.77483321 -4.04405437 -179.77944467 -5.22351194 -176.375 -6.6875 C-153.52905196 -16.08910116 -129.52850691 -20.04396212 -105 -22 C-104.23896973 -22.06316406 -103.47793945 -22.12632812 -102.69384766 -22.19140625 C-68.28455784 -24.90204798 -26.67059975 -25.19520487 0 0 Z " fill="#020202" transform="translate(628,307)"/>
<path d="M0 0 C13.48875 -0.0825 26.9775 -0.165 40.875 -0.25 C45.09651855 -0.28641602 49.31803711 -0.32283203 53.66748047 -0.36035156 C58.91821289 -0.37841797 58.91821289 -0.37841797 61.39480591 -0.3817749 C63.08405809 -0.38782172 64.77329568 -0.40168485 66.46243286 -0.42230225 C81.3106762 -0.5940981 98.59216707 -0.73373371 110 10 C111.51935239 11.06461664 113.04026477 12.12700946 114.5625 13.1875 C124.17945353 20.74841519 128.41364125 32.06820624 130.75 43.75 C131.90868552 58.81291176 128.67732745 72.62776299 118.75 84.25 C112.73093513 90.6190105 106.15056074 94.87850865 98 98 C101.91353682 106.05853367 106.12338814 113.85567478 110.6875 121.5625 C111.91290433 123.64965509 113.13816267 125.73689591 114.36328125 127.82421875 C115.5753273 129.88292645 116.78756252 131.9415228 118 134 C120.13115028 137.62143971 122.25571 141.24660933 124.375 144.875 C125.08015747 146.06911499 125.08015747 146.06911499 125.79956055 147.28735352 C129 152.77286665 129 152.77286665 129 155 C129.66 155 130.32 155 131 155 C131 155.66 131 156.32 131 157 C125.67998972 157.198124 120.36213454 157.34308619 115.03930664 157.43945312 C113.23000686 157.47962739 111.42096592 157.53418125 109.61254883 157.60351562 C107.00797789 157.70085601 104.40684208 157.74597932 101.80078125 157.78125 C100.99538406 157.82254028 100.18998688 157.86383057 99.36018372 157.90637207 C96.98867296 157.90825655 95.22890136 157.82037346 93 157 C90.7767718 154.57686416 89.40717615 151.95219514 88 149 C87.47535156 148.15953125 86.95070313 147.3190625 86.41015625 146.453125 C83.88290364 142.32161639 81.55037489 138.17109521 79.4375 133.8125 C74.45403455 123.61721624 68.62963938 113.84748835 63 104 C61.02 104 59.04 104 57 104 C57 103.34 57 102.68 57 102 C56.01 102.66 55.02 103.32 54 104 C53.01 104 52.02 104 51 104 C51 103.34 51 102.68 51 102 C45.72 102 40.44 102 35 102 C35 103.32 35 104.64 35 106 C35.99 106.33 36.98 106.66 38 107 C37.01 107.495 37.01 107.495 36 108 C36.00222061 108.56962967 36.00444122 109.13925934 36.00672913 109.72615051 C36.02882725 115.64693577 36.04392559 121.56770934 36.05493164 127.48852539 C36.059965 129.69914221 36.06679217 131.90975569 36.07543945 134.12036133 C36.08754859 137.295093 36.09323825 140.46978072 36.09765625 143.64453125 C36.10281754 144.63524124 36.10797882 145.62595123 36.11329651 146.64668274 C36.11337204 147.56741074 36.11344757 148.48813873 36.11352539 149.43676758 C36.115746 150.2472908 36.11796661 151.05781403 36.12025452 151.89289856 C36 154 36 154 35 157 C34.3702124 156.99476318 33.7404248 156.98952637 33.09155273 156.98413086 C30.20687885 156.96319862 27.32222102 156.9502885 24.4375 156.9375 C23.44685547 156.92912109 22.45621094 156.92074219 21.43554688 156.91210938 C15.18002066 156.89119636 15.18002066 156.89119636 8.97265625 157.56640625 C6 158 6 158 3 157 C2.01 157 1.02 157 0 157 C0 105.19 0 53.38 0 0 Z M35 30 C36.485 30.99 36.485 30.99 38 32 C37.01 32 36.02 32 35 32 C35 45.53 35 59.06 35 73 C35.99 72.505 35.99 72.505 37 72 C40.05348214 71.94931824 43.08456921 71.957636 46.13671875 72.0078125 C48.01236428 72.02534006 49.88801568 72.04224725 51.76367188 72.05859375 C54.72176372 72.08947102 57.67956156 72.12487517 60.63745117 72.17138672 C63.49141004 72.21392961 66.34502799 72.23723154 69.19921875 72.2578125 C70.07551437 72.27643341 70.95181 72.29505432 71.85466003 72.3142395 C78.62425316 72.34228178 82.98960274 70.91570735 88.75 67.25 C93.56672769 62.43327231 94.20202243 58.04073067 94.375 51.4375 C94.20245436 44.88826778 92.97478432 41.29501962 88.6875 36.3125 C81.60125567 30.21503395 74.66027646 29.84825639 65.76171875 29.90234375 C64.88095169 29.9037587 64.00018463 29.90517365 63.09272766 29.90663147 C60.29094997 29.91221063 57.48925338 29.92475929 54.6875 29.9375 C52.78320428 29.94251769 50.87890731 29.94708013 48.97460938 29.95117188 C44.31637519 29.96217323 39.65820133 29.97942351 35 30 Z " fill="#050505" transform="translate(248,655)"/>
<path d="M0 0 C12.54 0 25.08 0 38 0 C39.85625 4.7025 39.85625 4.7025 41.75 9.5 C46.91344869 22.47876498 52.30039856 35.36286716 57.6875 48.25 C64.44108953 64.4080827 71.12016232 80.5921254 77.67382812 96.83227539 C78.26556151 98.29836547 78.85735798 99.76443009 79.44921875 101.23046875 C79.73844208 101.94689041 80.02766541 102.66331207 80.32565308 103.40144348 C84.31134466 113.26091329 88.37403694 123.08885661 92.43505859 132.91748047 C93.9606161 136.61005354 95.48129324 140.30460373 97 144 C97.4223291 145.02303223 97.8446582 146.04606445 98.27978516 147.10009766 C98.64765137 148.00163574 99.01551758 148.90317383 99.39453125 149.83203125 C99.7088208 150.59878174 100.02311035 151.36553223 100.34692383 152.15551758 C101 154 101 154 101 156 C95.31052042 157.69686233 91.93563936 157.86162507 86 157 C82.51981344 156.87684152 79.04431604 156.90491281 75.5625 156.9375 C74.64017578 156.94201172 73.71785156 156.94652344 72.76757812 156.95117188 C70.51164952 156.96286062 68.25586033 156.97924545 66 157 C60.46236542 146.67986283 56.23476983 135.90234861 52 125 C51.01 125.495 51.01 125.495 50 126 C50 125.34 50 124.68 50 124 C49.46485779 124.16265854 48.92971558 124.32531708 48.37835693 124.49290466 C45.51265753 125.10390749 42.87780311 125.11958224 39.94628906 125.11352539 C38.72532532 125.11344986 37.50436157 125.11337433 36.24639893 125.11329651 C34.93274353 125.10813522 33.61908813 125.10297394 32.265625 125.09765625 C30.9037074 125.09579021 29.54178912 125.09436718 28.17987061 125.09336853 C24.60258111 125.08955803 21.02533248 125.07974032 17.44805908 125.06866455 C13.79480543 125.05841884 10.14154514 125.05386415 6.48828125 125.04882812 C-0.67449776 125.03811669 -7.83724314 125.02105794 -15 125 C-15.14372543 125.76406662 -15.28745087 126.52813324 -15.43553162 127.31535339 C-16.0895432 130.42587302 -17.13242012 133.21368715 -18.28515625 136.17578125 C-18.73310547 137.33271484 -19.18105469 138.48964844 -19.64257812 139.68164062 C-20.11115234 140.87982422 -20.57972656 142.07800781 -21.0625 143.3125 C-21.53494141 144.53001953 -22.00738281 145.74753906 -22.49414062 147.00195312 C-23.65914761 150.0027287 -24.82788789 153.00199416 -26 156 C-27.12148438 156.09740479 -27.12148438 156.09740479 -28.265625 156.19677734 C-29.25046875 156.2839502 -30.2353125 156.37112305 -31.25 156.4609375 C-32.22453125 156.54649902 -33.1990625 156.63206055 -34.203125 156.72021484 C-36.491589 156.94914115 -38.73253484 157.25011727 -41 157.625 C-44 158 -44 158 -47 157 C-49.57265818 156.92970879 -52.11641431 156.90629168 -54.6875 156.9375 C-55.38939453 156.94201172 -56.09128906 156.94652344 -56.81445312 156.95117188 C-58.54300538 156.96293073 -60.27151365 156.98086546 -62 157 C-61.38230672 151.88639995 -59.80705691 147.63636842 -57.82421875 142.9375 C-57.50312637 142.16196274 -57.182034 141.38642548 -56.85121155 140.58738708 C-56.16121034 138.92251836 -55.46840853 137.25880808 -54.77307129 135.59616089 C-53.30125462 132.07628807 -51.84334584 128.55071542 -50.38497925 125.0252533 C-49.64548658 123.23760439 -48.90535199 121.45022089 -48.1645813 119.6631012 C-44.96750196 111.94436439 -41.8414521 104.1990514 -38.75 96.4375 C-38.27208008 95.23891357 -37.79416016 94.04032715 -37.30175781 92.80541992 C-36.34724252 90.40989759 -35.39329824 88.01414766 -34.43994141 85.61816406 C-31.94437477 79.3475134 -29.44210261 73.07954633 -26.9375 66.8125 C-26.56428619 65.87839294 -26.56428619 65.87839294 -26.18353271 64.92541504 C-22.17497333 54.8960288 -18.11332383 44.88889995 -14.02783203 34.890625 C-9.28971151 23.28508611 -4.64395054 11.64352816 0 0 Z M18 37 C17.56606934 38.15991455 17.13213867 39.3198291 16.68505859 40.51489258 C15.15184604 44.60314139 13.59956145 48.68382048 12.0390625 52.76171875 C11.76661713 53.47423294 11.49417175 54.18674713 11.21347046 54.92085266 C10.64048258 56.41920562 10.06737111 57.91751132 9.49414062 59.41577148 C8.63382279 61.6644393 7.77390894 63.91326127 6.9140625 66.16210938 C6.63415466 66.89358185 6.35424683 67.62505432 6.06585693 68.37869263 C5.50957461 69.83388203 4.9544257 71.28950525 4.40045166 72.74557495 C3.10902988 76.13438235 1.80037255 79.51315348 0.43652344 82.87353516 C-0.02979492 84.03546387 -0.49611328 85.19739258 -0.9765625 86.39453125 C-1.60038818 87.91784058 -1.60038818 87.91784058 -2.23681641 89.47192383 C-3.29149743 92.08701555 -3.29149743 92.08701555 -2 95 C-0.93040039 95 0.13919922 95 1.24121094 95 C14.49414062 95 27.74707031 95 41 95 C39.07443364 88.14381674 36.7527517 81.56747868 34 75 C33.34 75 32.68 75 32 75 C31.94714844 73.97648438 31.89429688 72.95296875 31.83984375 71.8984375 C31.0743459 65.79328942 28.61833993 60.2098746 26.3347168 54.54345703 C25.55754407 52.61268774 24.79637409 50.67615353 24.03710938 48.73828125 C21.8020853 42.38097619 21.8020853 42.38097619 18 37 Z M32 72 C33 74 33 74 33 74 Z " fill="#030404" transform="translate(466,655)"/>
<path d="M0 0 C5.89560756 4.93820121 10.61711576 10.6827858 14.66015625 17.2265625 C14.66015625 17.8865625 14.66015625 18.5465625 14.66015625 19.2265625 C11.15931287 21.22856571 7.65381775 23.22213319 4.14379883 25.20800781 C2.95043237 25.88474084 1.75836165 26.56376413 0.56762695 27.24511719 C-1.14419587 28.22411715 -2.86109993 29.19421549 -4.578125 30.1640625 C-5.60977783 30.75058594 -6.64143066 31.33710937 -7.7043457 31.94140625 C-10.33984375 33.2265625 -10.33984375 33.2265625 -13.33984375 33.2265625 C-15.06346688 31.72712683 -16.72089475 30.15095213 -18.33984375 28.5390625 C-27.62560642 19.7376264 -38.11721869 16.30927663 -50.82421875 16.1953125 C-62.90950121 16.72305409 -73.2154864 20.08315142 -82.33984375 28.2265625 C-92.25855404 39.53237212 -95.96548978 53.32069953 -95.21484375 68.1640625 C-94.35173656 80.09733436 -91.03073583 89.94501684 -83.33984375 99.2265625 C-82.82808594 99.87367188 -82.31632813 100.52078125 -81.7890625 101.1875 C-76.32118113 107.40161828 -67.50781355 111.86270855 -59.33984375 113.2265625 C-42.66709081 114.14497686 -29.30808549 111.95064317 -16.21484375 100.8515625 C-15.26609375 99.9853125 -14.31734375 99.1190625 -13.33984375 98.2265625 C-10.0736473 99.79245504 -7.00792626 101.59606763 -3.91796875 103.484375 C-2.38076172 104.42216797 -2.38076172 104.42216797 -0.8125 105.37890625 C0.25097656 106.02988281 1.31445312 106.68085937 2.41015625 107.3515625 C3.48910156 108.01027344 4.56804687 108.66898438 5.6796875 109.34765625 C8.34071867 110.97253369 11.00083641 112.59888629 13.66015625 114.2265625 C5.25565841 128.47959685 -8.37933832 138.99972983 -24.34375 143.34765625 C-46.02305875 148.79825482 -70.46107676 148.43708441 -90.33984375 137.2265625 C-94.0711988 134.98483814 -97.72482423 132.6508239 -101.33984375 130.2265625 C-102.82484375 129.2365625 -102.82484375 129.2365625 -104.33984375 128.2265625 C-104.33984375 127.5665625 -104.33984375 126.9065625 -104.33984375 126.2265625 C-104.95859375 125.9171875 -105.57734375 125.6078125 -106.21484375 125.2890625 C-110.11794997 123.33750939 -111.10580979 122.06086191 -113.33984375 118.2265625 C-114.80712407 116.09184527 -116.28492519 113.96840453 -117.77734375 111.8515625 C-125.99178112 100.07477537 -125.99178112 100.07477537 -127.33984375 94.2265625 C-127.64921875 93.04449219 -127.95859375 91.86242187 -128.27734375 90.64453125 C-134.26427345 67.16358055 -133.51154688 43.08932077 -121 21.74609375 C-108.47042533 2.7306216 -91.80930285 -10.01891571 -69.42919922 -14.74267578 C-45.19838208 -19.09498911 -19.84254081 -15.03925464 0 0 Z " fill="#050505" transform="translate(706.33984375,667.7734375)"/>
<path d="M0 0 C0.94906975 0.00699732 1.8981395 0.01399464 2.87596893 0.02120399 C3.96132431 0.02679832 5.04667969 0.03239265 6.16492462 0.03815651 C7.36600357 0.04953148 8.56708252 0.06090645 9.8045578 0.07262611 C11.06130814 0.08062737 12.31805847 0.08862862 13.61289215 0.09687233 C17.06944806 0.11912447 20.52592403 0.1477853 23.98241997 0.17782736 C27.59209601 0.2084103 31.2018075 0.23408216 34.81151581 0.26052284 C40.87449626 0.30575797 46.9374314 0.3552424 53.00035858 0.40709877 C60.01955854 0.46707099 67.03878539 0.51984373 74.05806971 0.56886709 C80.07422243 0.6110695 86.09033659 0.65712433 92.1064353 0.70643198 C95.70416763 0.7359164 99.30189707 0.76404936 102.89966583 0.78873253 C106.9083892 0.81649274 110.91700008 0.85233207 114.92565155 0.88903236 C116.72726997 0.90002213 116.72726997 0.90002213 118.56528473 0.9112339 C119.65064011 0.92246788 120.73599548 0.93370186 121.85424042 0.94527626 C123.27784504 0.95690331 123.27784504 0.95690331 124.73020935 0.96876526 C126.86510468 1.11022377 126.86510468 1.11022377 127.86510468 2.11022377 C127.96503999 4.17077687 127.99591373 6.23474967 127.99791718 8.29772377 C127.99920624 9.55327065 128.0004953 10.80881752 128.00182343 12.10241127 C127.9997287 12.75951088 127.99763397 13.41661049 127.99547577 14.09362221 C127.99012701 16.10183712 127.99542159 18.10982836 128.00182343 20.11803627 C127.99988983 22.00135658 127.99988983 22.00135658 127.99791718 23.92272377 C127.99678925 25.08416908 127.99566132 26.2456144 127.99449921 27.44225502 C127.86510468 30.11022377 127.86510468 30.11022377 126.86510468 31.11022377 C124.2735736 31.27018543 121.70558448 31.36961074 119.11119843 31.42663002 C118.3357518 31.44741112 117.56030518 31.46819221 116.76136017 31.48960304 C114.2752016 31.55518179 111.78893422 31.61402176 109.30260468 31.67272377 C107.62095263 31.7159011 105.93931174 31.75951513 104.2576828 31.80358315 C100.12693597 31.91087156 95.99607932 32.01211509 91.86510468 32.11022377 C91.86510468 32.44022377 91.86510468 32.77022377 91.86510468 33.11022377 C90.21510468 33.11022377 88.56510468 33.11022377 86.86510468 33.11022377 C86.86510468 32.78022377 86.86510468 32.45022377 86.86510468 32.11022377 C84.55510468 32.11022377 82.24510468 32.11022377 79.86510468 32.11022377 C79.86694826 32.75259672 79.86879185 33.39496967 79.8706913 34.05680847 C79.91481791 49.67137322 79.94793565 65.28591636 79.96872902 80.90052795 C79.97905124 88.4515691 79.99312956 96.00256868 80.01598358 103.55358315 C80.0358886 110.13336483 80.04881423 116.71311643 80.05328166 123.29292738 C80.05589396 126.77841391 80.06205346 130.26381432 80.07656479 133.7492733 C80.09261505 137.63572009 80.09308622 141.52208186 80.09215546 145.40856361 C80.09934601 146.57021538 80.10653656 147.73186714 80.11394501 148.92872047 C80.11119568 149.98323906 80.10844635 151.03775764 80.10561371 152.12423134 C80.10745729 153.04418074 80.10930088 153.96413013 80.11120033 154.91195679 C79.86510468 157.11022377 79.86510468 157.11022377 77.86510468 159.11022377 C77.20510468 158.78022377 76.54510468 158.45022377 75.86510468 158.11022377 C73.62533687 158.0364562 71.3833326 158.0267578 69.14244843 158.04772377 C68.15142876 158.0534037 68.15142876 158.0534037 67.14038849 158.05919838 C65.0277282 158.07142968 62.91520332 158.09006493 60.80260468 158.11022377 C58.02005644 158.13670922 55.23757459 158.15675229 52.45494843 158.17272377 C51.2160788 158.18432533 49.97720917 158.1959269 48.70079803 158.20788002 C45.86510468 158.11022377 45.86510468 158.11022377 44.86510468 157.11022377 C44.75697954 155.51641299 44.71826171 153.9178473 44.70688629 152.32041359 C44.69709747 151.28409798 44.68730865 150.24778236 44.67722321 149.18006325 C44.66859001 147.4602449 44.66859001 147.4602449 44.65978241 145.70568275 C44.64988281 144.50584755 44.63998322 143.30601234 44.62978363 142.0698185 C44.60353335 138.77040139 44.58169725 135.47100929 44.56178164 132.17155147 C44.53995954 128.72685207 44.51255244 125.28219735 44.4857254 121.83753395 C44.4357473 115.31042888 44.39082753 108.78329909 44.34770304 102.25614554 C44.2983743 94.82697188 44.24344004 87.39784304 44.18802345 79.96871269 C44.07412488 64.68259109 43.96730308 49.39642834 43.86510468 34.11022377 C41.55510468 33.78022377 39.24510468 33.45022377 36.86510468 33.11022377 C36.86510468 32.78022377 36.86510468 32.45022377 36.86510468 32.11022377 C32.88595309 32.08135393 28.90682814 32.06346971 24.92760468 32.04772377 C23.79129608 32.03934486 22.65498749 32.03096596 21.4842453 32.02233315 C20.40465546 32.01911049 19.32506561 32.01588783 18.21276093 32.01256752 C17.21252899 32.0073307 16.21229706 32.00209389 15.18175507 31.99669838 C12.9030324 31.84841282 12.9030324 31.84841282 11.86510468 33.11022377 C10.19893352 33.15086209 8.53122373 33.15294477 6.86510468 33.11022377 C6.86510468 32.78022377 6.86510468 32.45022377 6.86510468 32.11022377 C3.56510468 31.78022377 0.26510468 31.45022377 -3.13489532 31.11022377 C-3.15955154 26.85607754 -3.17773431 22.60196879 -3.18982697 18.3477726 C-3.19486633 16.89952305 -3.20169786 15.4512786 -3.21033478 14.00304604 C-3.22241779 11.92547789 -3.22812744 9.8479768 -3.23255157 7.77038002 C-3.23778839 6.5187809 -3.24302521 5.26718178 -3.24842072 3.97765541 C-3.09727119 0.15991084 -3.09727119 0.15991084 0 0 Z " fill="#020202" transform="translate(745.134895324707,653.8897762298584)"/>
<path d="M0 0 C10.70222773 8.1564709 18.52633163 19.38019301 20.49609375 32.90234375 C21.72478663 48.85804561 18.45913635 62.62691415 8.24609375 75.15234375 C-0.91219038 84.99649057 -12.30188045 90.31732748 -25.50390625 91.90234375 C-26.20902344 91.98742187 -26.91414063 92.0725 -27.640625 92.16015625 C-43.57004141 93.07040862 -56.70732535 85.3124782 -68.47265625 75.5390625 C-70.40523239 73.86294824 -70.40523239 73.86294824 -72.50390625 72.90234375 C-72.8544948 71.23922122 -73.18468165 69.57177016 -73.50390625 67.90234375 C-74.27594367 66.17534715 -75.09137538 64.4673161 -75.94140625 62.77734375 C-78.22716217 57.92258262 -79.38465999 53.41349019 -80.14453125 48.1171875 C-80.3963517 45.86896424 -80.3963517 45.86896424 -81.50390625 43.90234375 C-81.63806097 41.22998165 -81.54709166 38.57983887 -81.50390625 35.90234375 C-80.84390625 35.90234375 -80.18390625 35.90234375 -79.50390625 35.90234375 C-79.44203125 34.66484375 -79.38015625 33.42734375 -79.31640625 32.15234375 C-77.84678743 19.34854139 -70.52439056 8.65063648 -60.8046875 0.53515625 C-42.25950875 -12.62593835 -18.78251479 -12.8942373 0 0 Z " fill="#020202" transform="translate(537.50390625,172.09765625)"/>
<path d="M0 0 C11.88 0 23.76 0 36 0 C36.15296297 20.32256977 36.30178687 40.64515587 36.4429636 60.96781063 C36.50864384 70.40328583 36.57621607 79.83874049 36.64819336 89.27416992 C36.71090054 97.49501278 36.77010781 105.71587198 36.82505554 113.9367705 C36.85429218 118.29243992 36.88531979 122.64808044 36.92053413 127.00370598 C36.95358484 131.09853849 36.98197625 135.19337617 37.00670624 139.28826714 C37.01664681 140.79560087 37.02832816 142.30292422 37.04183006 143.81023026 C37.05993085 145.85924534 37.07131305 147.90831657 37.08229065 149.9573822 C37.09058679 151.10685805 37.09888292 152.2563339 37.10743046 153.44064236 C37 156 37 156 36 157 C33.58909367 157.19701049 31.20469567 157.33265043 28.7890625 157.421875 C28.06512299 157.44977112 27.34118347 157.47766724 26.5953064 157.50640869 C25.06038275 157.56289577 23.52535086 157.61650229 21.99023438 157.66748047 C19.64110995 157.74943795 17.29354792 157.85298302 14.9453125 157.95703125 C13.45577554 158.00915513 11.96619241 158.05997902 10.4765625 158.109375 C9.42174179 158.16070587 9.42174179 158.16070587 8.34561157 158.21307373 C3.44390596 158.34000839 3.44390596 158.34000839 1.03271484 156.49316406 C0.521521 155.75404785 0.521521 155.75404785 0 155 C0.66 155 1.32 155 2 155 C1.505 149.06 1.505 149.06 1 143 C0.67 143 0.34 143 0 143 C0 121.66666667 0 100.33333333 0 79 C-0.01047363 78.27627197 -0.02094727 77.55254395 -0.03173828 76.80688477 C-0.07321949 73.72546116 -0.0992434 70.6440933 -0.125 67.5625 C-0.14175781 66.48677734 -0.15851563 65.41105469 -0.17578125 64.30273438 C-0.18222656 63.27599609 -0.18867188 62.24925781 -0.1953125 61.19140625 C-0.20578613 60.24467041 -0.21625977 59.29793457 -0.22705078 58.32250977 C0 56 0 56 2 54 C1.34 54 0.68 54 0 54 C0 48.39 0 42.78 0 37 C0.33 37 0.66 37 1 37 C1.33 34.69 1.66 32.38 2 30 C1.34 29.67 0.68 29.34 0 29 C0.66 29 1.32 29 2 29 C1.67 28.484375 1.34 27.96875 1 27.4375 C-0.85780722 22.9090949 -0.15220028 18.6088011 1 14 C1.03888349 11.66699067 1.0448635 9.33290199 1 7 C0.67 7 0.34 7 0 7 C0 4.69 0 2.38 0 0 Z M1 1 C2 4 2 4 2 4 Z M1 46 C1 48.31 1 50.62 1 53 C1.33 53 1.66 53 2 53 C2 50.69 2 48.38 2 46 C1.67 46 1.34 46 1 46 Z M1 58 C2 60 2 60 2 60 Z M1 62 C2 65 2 65 2 65 Z M1 90 C2 92 2 92 2 92 Z M1 94 C1 95.98 1 97.96 1 100 C1.33 100 1.66 100 2 100 C2 98.02 2 96.04 2 94 C1.67 94 1.34 94 1 94 Z M1 114 C1 115.65 1 117.3 1 119 C1.33 119 1.66 119 2 119 C2 117.35 2 115.7 2 114 C1.67 114 1.34 114 1 114 Z M1 122 C2 124 2 124 2 124 Z M1 126 C2 129 2 129 2 129 Z M1 130 C1 133.3 1 136.6 1 140 C1.33 140 1.66 140 2 140 C2 136.7 2 133.4 2 130 C1.67 130 1.34 130 1 130 Z " fill="#010101" transform="translate(168,655)"/>
<path d="M0 0 C11.88 0 23.76 0 36 0 C36 0.33 36 0.66 36 1 C25.11 1 14.22 1 3 1 C3 52.15 3 103.3 3 156 C13.89 156 24.78 156 36 156 C36 156.33 36 156.66 36 157 C31.35586181 157.21712953 26.71147389 157.4139689 22.06567383 157.59204102 C20.48536197 157.65547413 18.90526245 157.7244491 17.32543945 157.79907227 C15.05452988 157.90537623 12.78360256 157.99172961 10.51171875 158.07421875 C9.45219246 158.1302552 9.45219246 158.1302552 8.3712616 158.18742371 C3.44308222 158.33850449 3.44308222 158.33850449 1.03051758 156.49536133 C0.69044678 156.00189209 0.35037598 155.50842285 0 155 C0.66 155 1.32 155 2 155 C1.505 149.06 1.505 149.06 1 143 C0.67 143 0.34 143 0 143 C0 121.66666667 0 100.33333333 0 79 C-0.01047363 78.27627197 -0.02094727 77.55254395 -0.03173828 76.80688477 C-0.07321949 73.72546116 -0.0992434 70.6440933 -0.125 67.5625 C-0.14175781 66.48677734 -0.15851563 65.41105469 -0.17578125 64.30273438 C-0.18222656 63.27599609 -0.18867188 62.24925781 -0.1953125 61.19140625 C-0.20578613 60.24467041 -0.21625977 59.29793457 -0.22705078 58.32250977 C0 56 0 56 2 54 C1.34 54 0.68 54 0 54 C0 48.39 0 42.78 0 37 C0.33 37 0.66 37 1 37 C1.33 34.69 1.66 32.38 2 30 C1.34 29.67 0.68 29.34 0 29 C0.66 29 1.32 29 2 29 C1.67 28.484375 1.34 27.96875 1 27.4375 C-0.85780722 22.9090949 -0.15220028 18.6088011 1 14 C1.03888349 11.66699067 1.0448635 9.33290199 1 7 C0.67 7 0.34 7 0 7 C0 4.69 0 2.38 0 0 Z M1 1 C2 4 2 4 2 4 Z M1 46 C1 48.31 1 50.62 1 53 C1.33 53 1.66 53 2 53 C2 50.69 2 48.38 2 46 C1.67 46 1.34 46 1 46 Z M1 58 C2 60 2 60 2 60 Z M1 62 C2 65 2 65 2 65 Z M1 90 C2 92 2 92 2 92 Z M1 94 C1 95.98 1 97.96 1 100 C1.33 100 1.66 100 2 100 C2 98.02 2 96.04 2 94 C1.67 94 1.34 94 1 94 Z M1 114 C1 115.65 1 117.3 1 119 C1.33 119 1.66 119 2 119 C2 117.35 2 115.7 2 114 C1.67 114 1.34 114 1 114 Z M1 122 C2 124 2 124 2 124 Z M1 126 C2 129 2 129 2 129 Z M1 130 C1 133.3 1 136.6 1 140 C1.33 140 1.66 140 2 140 C2 136.7 2 133.4 2 130 C1.67 130 1.34 130 1 130 Z " fill="#40403E" transform="translate(168,655)"/>
<path d="M0 0 C1.42555285 0.01244421 1.42555285 0.01244421 2.87990475 0.02513981 C3.96670528 0.0321793 5.05350582 0.03921879 6.17323971 0.0464716 C7.3758897 0.05941761 8.5785397 0.07236362 9.81763363 0.08570194 C11.07599026 0.09530949 12.33434689 0.10491703 13.63083553 0.11481571 C17.0914591 0.14135206 20.55199946 0.17412007 24.01255822 0.20796561 C27.62536445 0.24225405 31.23821538 0.27086882 34.85106564 0.30007267 C41.69697784 0.35627911 48.54283406 0.41762469 55.38868517 0.48079401 C63.18054653 0.55244399 70.97245278 0.61839931 78.76436818 0.68386447 C94.79707466 0.81869432 110.82970916 0.96071399 126.86231136 1.10743046 C126.86231136 1.43743046 126.86231136 1.76743046 126.86231136 2.10743046 C84.29231136 2.10743046 41.72231136 2.10743046 -2.13768864 2.10743046 C-2.13768864 11.34743046 -2.13768864 20.58743046 -2.13768864 30.10743046 C13.70231136 30.10743046 29.54231136 30.10743046 45.86231136 30.10743046 C45.86231136 72.01743046 45.86231136 113.92743046 45.86231136 157.10743046 C45.53231136 157.10743046 45.20231136 157.10743046 44.86231136 157.10743046 C44.36731136 96.22243046 44.36731136 96.22243046 43.86231136 34.10743046 C41.55231136 33.77743046 39.24231136 33.44743046 36.86231136 33.10743046 C36.86231136 32.77743046 36.86231136 32.44743046 36.86231136 32.10743046 C32.88315977 32.07856062 28.90403483 32.0606764 24.92481136 32.04493046 C23.78850277 32.03655155 22.65219418 32.02817265 21.48145199 32.01953983 C20.40186214 32.01631718 19.3222723 32.01309452 18.20996761 32.00977421 C17.20973568 32.00453739 16.20950375 31.99930058 15.17896175 31.99390507 C12.90023909 31.84561951 12.90023909 31.84561951 11.86231136 33.10743046 C10.19614021 33.14806878 8.52843041 33.15015146 6.86231136 33.10743046 C6.86231136 32.77743046 6.86231136 32.44743046 6.86231136 32.10743046 C3.56231136 31.77743046 0.26231136 31.44743046 -3.13768864 31.10743046 C-3.16234486 26.85328423 -3.18052762 22.59917548 -3.19262028 18.34497929 C-3.19765965 16.89672973 -3.20449117 15.44848529 -3.21312809 14.00025272 C-3.22521111 11.92268458 -3.23092075 9.84518349 -3.23534489 7.76758671 C-3.2405817 6.51598759 -3.24581852 5.26438847 -3.25121403 3.9748621 C-3.10001204 0.15579243 -3.10001204 0.15579243 0 0 Z " fill="#424341" transform="translate(745.1376886367798,653.8925695419312)"/>
<path d="M0 0 C0.66 0.66 1.32 1.32 2 2 C-3.19494365 8.13284616 -8.72631259 13.84863969 -14.4375 19.5 C-15.26443359 20.32242187 -16.09136719 21.14484375 -16.94335938 21.9921875 C-18.95994959 23.99712113 -20.97885236 25.99966253 -23 28 C-23 24.3716158 -22.38511274 23.97316098 -19.96484375 21.41796875 C-19.31966797 20.73283203 -18.67449219 20.04769531 -18.00976562 19.34179688 C-17.32591797 18.63087891 -16.64207031 17.91996094 -15.9375 17.1875 C-15.28072266 16.48818359 -14.62394531 15.78886719 -13.94726562 15.06835938 C-10.2759635 11.20173674 -6.53313668 7.62748391 -2.34985352 4.31762695 C-0.72226548 2.93010644 -0.72226548 2.93010644 0 0 Z " fill="#252625" transform="translate(496,418)"/>
<path d="M0 0 C0.33 0 0.66 0 1 0 C1 6.6 1 13.2 1 20 C0.67 20 0.34 20 0 20 C-0.33 14.72 -0.66 9.44 -1 4 C-3.31 3.67 -5.62 3.34 -8 3 C-8 2.67 -8 2.34 -8 2 C-6.865625 1.855625 -5.73125 1.71125 -4.5625 1.5625 C-1.19222799 1.38828522 -1.19222799 1.38828522 0 0 Z " fill="#444442" transform="translate(790,684)"/>
<path d="M0 0 C0.33 0 0.66 0 1 0 C1 2.31 1 4.62 1 7 C0.67 7 0.34 7 0 7 C0 4.69 0 2.38 0 0 Z " fill="#40403E" transform="translate(168,799)"/>
<path d="M0 0 C2.31 0 4.62 0 7 0 C7 0.33 7 0.66 7 1 C4.69 1 2.38 1 0 1 C0 0.67 0 0.34 0 0 Z " fill="#41413F" transform="translate(304,686)"/>
<path d="M0 0 C1.65 0 3.3 0 5 0 C4.67 0.66 4.34 1.32 4 2 C2.68 1.34 1.36 0.68 0 0 Z " fill="#3F3F3D" transform="translate(288,686)"/>
<path d="M0 0 C0.99 0.33 1.98 0.66 3 1 C3 1.66 3 2.32 3 3 C2.34 3 1.68 3 1 3 C0.67 2.01 0.34 1.02 0 0 Z " fill="#3B3C3A" transform="translate(336,809)"/>
<path d="M0 0 C0.33 0 0.66 0 1 0 C1 1.65 1 3.3 1 5 C0.67 5 0.34 5 0 5 C0 3.35 0 1.7 0 0 Z " fill="#3E3D3C" transform="translate(284,795)"/>
<path d="M0 0 C1.65 0 3.3 0 5 0 C5 0.33 5 0.66 5 1 C3.35 1 1.7 1 0 1 C0 0.67 0 0.34 0 0 Z " fill="#434241" transform="translate(840,686)"/>
<path d="M0 0 C0.33 0 0.66 0 1 0 C1 1.65 1 3.3 1 5 C0.67 5 0.34 5 0 5 C0 3.35 0 1.7 0 0 Z " fill="#3E3E3D" transform="translate(168,663)"/>
<path d="M0 0 C0.66 0 1.32 0 2 0 C1.67 0.99 1.34 1.98 1 3 C0.67 2.01 0.34 1.02 0 0 Z " fill="#383837" transform="translate(384,379)"/>
<path d="M0 0 C0.99 0.495 0.99 0.495 2 1 C1.67 1.66 1.34 2.32 1 3 C0.67 2.01 0.34 1.02 0 0 Z " fill="#383735" transform="translate(586,778)"/>
<path d="M0 0 C1 4 1 4 1 4 Z " fill="#3C3C3B" transform="translate(284,772)"/>
<path d="M0 0 C1 4 1 4 1 4 Z " fill="#3B3B3A" transform="translate(284,764)"/>
<path d="M0 0 C0.66 0 1.32 0 2 0 C2 0.66 2 1.32 2 2 C1.34 2 0.68 2 0 2 C0 1.34 0 0.68 0 0 Z " fill="#373635" transform="translate(489,747)"/>
<path d="M0 0 C1 4 1 4 1 4 Z " fill="#3B3B3A" transform="translate(168,687)"/>
<path d="M0 0 C4 1 4 1 4 1 Z " fill="#464443" transform="translate(854,686)"/>
<path d="M0 0 C4 1 4 1 4 1 Z " fill="#42413E" transform="translate(777,686)"/>
<path d="M0 0 C0.99 0.33 1.98 0.66 3 1 C2.01 1 1.02 1 0 1 C0 0.67 0 0.34 0 0 Z " fill="#3C3B3B" transform="translate(419,454)"/>
<path d="M0 0 C4 1 4 1 4 1 Z " fill="#3A3B39" transform="translate(559,283)"/>
<path d="M0 0 C0.99 0.33 1.98 0.66 3 1 C2.01 1.33 1.02 1.66 0 2 C0 1.34 0 0.68 0 0 Z " fill="#373837" transform="translate(479,168)"/>
<path d="M0 0 C3 1 3 1 3 1 Z " fill="#3D3E3C" transform="translate(533,812)"/>
<path d="M0 0 C0.99 0.495 0.99 0.495 2 1 C1.01 1.495 1.01 1.495 0 2 C0 1.34 0 0.68 0 0 Z " fill="#40403F" transform="translate(284,809)"/>
<path d="" fill="#3E3B3C" transform="translate(0,0)"/>
<path d="M0 0 C0.66 0 1.32 0 2 0 C1.67 0.66 1.34 1.32 1 2 C0.67 1.34 0.34 0.68 0 0 Z " fill="#373734" transform="translate(584,776)"/>
<path d="M0 0 C0.99 0.495 0.99 0.495 2 1 C1.01 1.495 1.01 1.495 0 2 C0 1.34 0 0.68 0 0 Z " fill="#383935" transform="translate(284,758)"/>
<path d="" fill="#434342" transform="translate(0,0)"/>
<path d="" fill="#3B3C3B" transform="translate(0,0)"/>
<path d="M0 0 C0.99 0.495 0.99 0.495 2 1 C1.01 1.495 1.01 1.495 0 2 C0 1.34 0 0.68 0 0 Z " fill="#393738" transform="translate(440,714)"/>
<path d="" fill="#373737" transform="translate(0,0)"/>
<path d="" fill="#3E3E3D" transform="translate(0,0)"/>
<path d="" fill="#3F3F3D" transform="translate(0,0)"/>
<path d="" fill="#3E3D3C" transform="translate(0,0)"/>
<path d="M0 0 C0.66 0 1.32 0 2 0 C1.67 0.66 1.34 1.32 1 2 C0.67 1.34 0.34 0.68 0 0 Z " fill="#444443" transform="translate(771,686)"/>
<path d="M0 0 C3 1 3 1 3 1 Z " fill="#464544" transform="translate(764,686)"/>
<path d="M0 0 C3 1 3 1 3 1 Z " fill="#464743" transform="translate(746,686)"/>
<path d="M0 0 C0.66 0.66 1.32 1.32 2 2 C1.34 2 0.68 2 0 2 C0 1.34 0 0.68 0 0 Z " fill="#3C3B39" transform="translate(459,574)"/>
<path d="" fill="#3A3939" transform="translate(0,0)"/>
<path d="" fill="#363434" transform="translate(0,0)"/>
<path d="M0 0 C0.99 0.495 0.99 0.495 2 1 C1.01 1.495 1.01 1.495 0 2 C0 1.34 0 0.68 0 0 Z " fill="#323131" transform="translate(480,432)"/>
<path d="M0 0 C0.66 0.66 1.32 1.32 2 2 C1.34 2 0.68 2 0 2 C0 1.34 0 0.68 0 0 Z " fill="#353634" transform="translate(385,394)"/>
<path d="M0 0 C0.99 0.495 0.99 0.495 2 1 C1.01 1.495 1.01 1.495 0 2 C0 1.34 0 0.68 0 0 Z " fill="#2E2F2D" transform="translate(577,355)"/>
<path d="" fill="#373737" transform="translate(0,0)"/>
<path d="M0 0 C0.99 0.495 0.99 0.495 2 1 C1.01 1.495 1.01 1.495 0 2 C0 1.34 0 0.68 0 0 Z " fill="#393938" transform="translate(434,306)"/>
<path d="M0 0 C0.66 0.66 1.32 1.32 2 2 C1.34 2 0.68 2 0 2 C0 1.34 0 0.68 0 0 Z " fill="#3A3B38" transform="translate(472,290)"/>
<path d="M0 0 C3 1 3 1 3 1 Z " fill="#383937" transform="translate(523,262)"/>
<path d="M0 0 C0.66 0.66 1.32 1.32 2 2 C1.34 2 0.68 2 0 2 C0 1.34 0 0.68 0 0 Z " fill="#393938" transform="translate(475,253)"/>
<path d="M0 0 C2 1 2 1 2 1 Z " fill="#434341" transform="translate(408,813)"/>
<path d="M0 0 C2 1 2 1 2 1 Z " fill="#434442" transform="translate(201,813)"/>
<path d="M0 0 C2 1 2 1 2 1 Z " fill="#3E3F3D" transform="translate(401,811)"/>
<path d="" fill="#40403F" transform="translate(0,0)"/>
<path d="" fill="#393B39" transform="translate(0,0)"/>
<path d="" fill="#41403E" transform="translate(0,0)"/>
<path d="" fill="#424443" transform="translate(0,0)"/>
<path d="M0 0 C2 1 2 1 2 1 Z " fill="#393937" transform="translate(523,798)"/>
<path d="M0 0 C2 1 2 1 2 1 Z " fill="#3F3E3B" transform="translate(600,797)"/>
<path d="" fill="#353634" transform="translate(0,0)"/>
<path d="" fill="#373836" transform="translate(0,0)"/>
<path d="" fill="#393A38" transform="translate(0,0)"/>
<path d="" fill="#393837" transform="translate(0,0)"/>
<path d="" fill="#393B38" transform="translate(0,0)"/>
<path d="M0 0 C2 1 2 1 2 1 Z " fill="#3B3A38" transform="translate(589,783)"/>
<path d="" fill="#3B3936" transform="translate(0,0)"/>
<path d="" fill="#393736" transform="translate(0,0)"/>
<path d="M0 0 C2 1 2 1 2 1 Z " fill="#403F3F" transform="translate(641,778)"/>
<path d="" fill="#3A3939" transform="translate(0,0)"/>
<path d="" fill="#434441" transform="translate(0,0)"/>
<path d="" fill="#393A39" transform="translate(0,0)"/>
<path d="M0 0 C2 1 2 1 2 1 Z " fill="#414041" transform="translate(688,768)"/>
<path d="" fill="#424342" transform="translate(0,0)"/>
<path d="" fill="#393938" transform="translate(0,0)"/>
<path d="" fill="#363736" transform="translate(0,0)"/>
<path d="M0 0 C2 1 2 1 2 1 Z " fill="#363533" transform="translate(495,748)"/>
<path d="M0 0 C2 1 2 1 2 1 Z " fill="#393736" transform="translate(484,748)"/>
<path d="M0 0 C2 1 2 1 2 1 Z " fill="#393836" transform="translate(481,748)"/>
<path d="M0 0 C2 1 2 1 2 1 Z " fill="#363734" transform="translate(476,748)"/>
<path d="M0 0 C2 1 2 1 2 1 Z " fill="#343332" transform="translate(468,748)"/>
<path d="" fill="#383837" transform="translate(0,0)"/>
<path d="" fill="#424242" transform="translate(0,0)"/>
<path d="" fill="#333230" transform="translate(0,0)"/>
<path d="" fill="#424340" transform="translate(0,0)"/>
<path d="" fill="#3B3D3B" transform="translate(0,0)"/>
<path d="" fill="#40423F" transform="translate(0,0)"/>
<path d="" fill="#3D3C3D" transform="translate(0,0)"/>
<path d="" fill="#41413F" transform="translate(0,0)"/>
<path d="" fill="#3C3D3B" transform="translate(0,0)"/>
<path d="M0 0 C2 1 2 1 2 1 Z " fill="#323231" transform="translate(478,712)"/>
<path d="" fill="#323432" transform="translate(0,0)"/>
<path d="" fill="#393939" transform="translate(0,0)"/>
<path d="" fill="#353533" transform="translate(0,0)"/>
<path d="" fill="#3D3D3C" transform="translate(0,0)"/>
<path d="" fill="#40413F" transform="translate(0,0)"/>
<path d="" fill="#3E3D3D" transform="translate(0,0)"/>
<path d="M0 0 C2 1 2 1 2 1 Z " fill="#454343" transform="translate(859,686)"/>
<path d="M0 0 C2 1 2 1 2 1 Z " fill="#454442" transform="translate(768,686)"/>
<path d="M0 0 C2 1 2 1 2 1 Z " fill="#464644" transform="translate(761,686)"/>
<path d="M0 0 C2 1 2 1 2 1 Z " fill="#444444" transform="translate(758,686)"/>
<path d="M0 0 C2 1 2 1 2 1 Z " fill="#41403F" transform="translate(315,686)"/>
<path d="M0 0 C2 1 2 1 2 1 Z " fill="#414140" transform="translate(299,686)"/>
<path d="" fill="#444544" transform="translate(0,0)"/>
<path d="" fill="#434443" transform="translate(0,0)"/>
<path d="M0 0 C2 1 2 1 2 1 Z " fill="#3F3F3D" transform="translate(619,657)"/>
<path d="M0 0 C2 1 2 1 2 1 Z " fill="#373534" transform="translate(342,656)"/>
<path d="M0 0 C2 1 2 1 2 1 Z " fill="#3F403D" transform="translate(493,599)"/>
<path d="" fill="#424240" transform="translate(0,0)"/>
<path d="M0 0 C2 1 2 1 2 1 Z " fill="#3D3D3D" transform="translate(474,589)"/>
<path d="M0 0 C2 1 2 1 2 1 Z " fill="#383835" transform="translate(452,566)"/>
<path d="" fill="#373736" transform="translate(0,0)"/>
<path d="" fill="#3A3A3B" transform="translate(0,0)"/>
<path d="" fill="#3A3837" transform="translate(0,0)"/>
<path d="" fill="#3B3A39" transform="translate(0,0)"/>
<path d="M0 0 C2 1 2 1 2 1 Z " fill="#3B3C3B" transform="translate(416,455)"/>
<path d="" fill="#393939" transform="translate(0,0)"/>
<path d="" fill="#393937" transform="translate(0,0)"/>
<path d="M0 0 C2 1 2 1 2 1 Z " fill="#373737" transform="translate(529,392)"/>
<path d="" fill="#3A3A38" transform="translate(0,0)"/>
<path d="M0 0 C2 1 2 1 2 1 Z " fill="#3A3838" transform="translate(484,367)"/>
<path d="M0 0 C2 1 2 1 2 1 Z " fill="#3A3938" transform="translate(502,356)"/>
<path d="M0 0 C2 1 2 1 2 1 Z " fill="#353332" transform="translate(556,343)"/>
<path d="M0 0 C2 1 2 1 2 1 Z " fill="#2D2C2C" transform="translate(579,342)"/>
<path d="M0 0 C2 1 2 1 2 1 Z " fill="#2F2D2E" transform="translate(576,342)"/>
<path d="M0 0 C2 1 2 1 2 1 Z " fill="#2E2E2E" transform="translate(571,342)"/>
<path d="" fill="#393937" transform="translate(0,0)"/>
<path d="M0 0 C2 1 2 1 2 1 Z " fill="#383835" transform="translate(436,305)"/>
<path d="M0 0 C2 1 2 1 2 1 Z " fill="#373738" transform="translate(455,297)"/>
<path d="M0 0 C2 1 2 1 2 1 Z " fill="#393839" transform="translate(457,296)"/>
<path d="M0 0 C2 1 2 1 2 1 Z " fill="#3A3A37" transform="translate(481,289)"/>
<path d="M0 0 C2 1 2 1 2 1 Z " fill="#3A3A38" transform="translate(517,284)"/>
<path d="M0 0 C2 1 2 1 2 1 Z " fill="#3C3D3B" transform="translate(567,283)"/>
<path d="" fill="#393938" transform="translate(0,0)"/>
<path d="M0 0 C2 1 2 1 2 1 Z " fill="#393838" transform="translate(493,263)"/>
<path d="M0 0 C2 1 2 1 2 1 Z " fill="#3A3A39" transform="translate(487,261)"/>
<path d="" fill="#373838" transform="translate(0,0)"/>
<path d="" fill="#3B3C3B" transform="translate(0,0)"/>
<path d="" fill="#3C3C3A" transform="translate(0,0)"/>
<path d="" fill="#373835" transform="translate(0,0)"/>
<path d="M0 0 C2 1 2 1 2 1 Z " fill="#3C3B39" transform="translate(533,168)"/>
<path d="M0 0 C2 1 2 1 2 1 Z " fill="#363835" transform="translate(506,161)"/>
<path d="" fill="#2F2F2E" transform="translate(0,0)"/>
<path d="" fill="#3D3C3D" transform="translate(0,0)"/>
<path d="" fill="#3C3D3C" transform="translate(0,0)"/>
<path d="" fill="#3C3A39" transform="translate(0,0)"/>
<path d="" fill="#3F3D3A" transform="translate(0,0)"/>
<path d="" fill="#3F403D" transform="translate(0,0)"/>
<path d="" fill="#434341" transform="translate(0,0)"/>
<path d="" fill="#424340" transform="translate(0,0)"/>
<path d="" fill="#3F4140" transform="translate(0,0)"/>
<path d="" fill="#444340" transform="translate(0,0)"/>
<path d="" fill="#424340" transform="translate(0,0)"/>
<path d="" fill="#414241" transform="translate(0,0)"/>
<path d="" fill="#464442" transform="translate(0,0)"/>
<path d="" fill="#413E3D" transform="translate(0,0)"/>
<path d="" fill="#43423F" transform="translate(0,0)"/>
<path d="" fill="#444542" transform="translate(0,0)"/>
<path d="" fill="#43413E" transform="translate(0,0)"/>
<path d="" fill="#3F3F3E" transform="translate(0,0)"/>
<path d="" fill="#434340" transform="translate(0,0)"/>
<path d="" fill="#414240" transform="translate(0,0)"/>
<path d="" fill="#434341" transform="translate(0,0)"/>
<path d="" fill="#3F403D" transform="translate(0,0)"/>
<path d="" fill="#3F3D3C" transform="translate(0,0)"/>
<path d="" fill="#474644" transform="translate(0,0)"/>
<path d="" fill="#434443" transform="translate(0,0)"/>
<path d="" fill="#444442" transform="translate(0,0)"/>
<path d="" fill="#464743" transform="translate(0,0)"/>
<path d="" fill="#41413F" transform="translate(0,0)"/>
<path d="" fill="#474745" transform="translate(0,0)"/>
<path d="" fill="#424542" transform="translate(0,0)"/>
<path d="" fill="#444342" transform="translate(0,0)"/>
<path d="" fill="#444141" transform="translate(0,0)"/>
<path d="" fill="#3E3D3C" transform="translate(0,0)"/>
<path d="" fill="#3A3B38" transform="translate(0,0)"/>
<path d="" fill="#3C3D3C" transform="translate(0,0)"/>
<path d="" fill="#444342" transform="translate(0,0)"/>
<path d="" fill="#3F3E3D" transform="translate(0,0)"/>
<path d="" fill="#3D3F3C" transform="translate(0,0)"/>
<path d="" fill="#434241" transform="translate(0,0)"/>
<path d="" fill="#3C3B3A" transform="translate(0,0)"/>
<path d="" fill="#393A38" transform="translate(0,0)"/>
<path d="" fill="#393A39" transform="translate(0,0)"/>
<path d="" fill="#3E3F3B" transform="translate(0,0)"/>
<path d="" fill="#3B393A" transform="translate(0,0)"/>
<path d="" fill="#3F403D" transform="translate(0,0)"/>
<path d="" fill="#3D3D3D" transform="translate(0,0)"/>
<path d="" fill="#3F3B3C" transform="translate(0,0)"/>
<path d="" fill="#3C3A39" transform="translate(0,0)"/>
<path d="" fill="#363736" transform="translate(0,0)"/>
<path d="" fill="#434340" transform="translate(0,0)"/>
<path d="" fill="#434142" transform="translate(0,0)"/>
<path d="" fill="#413F3F" transform="translate(0,0)"/>
<path d="" fill="#383837" transform="translate(0,0)"/>
<path d="" fill="#373835" transform="translate(0,0)"/>
<path d="" fill="#403D3C" transform="translate(0,0)"/>
<path d="" fill="#383836" transform="translate(0,0)"/>
<path d="" fill="#393736" transform="translate(0,0)"/>
<path d="" fill="#3D3C3B" transform="translate(0,0)"/>
<path d="" fill="#393739" transform="translate(0,0)"/>
<path d="" fill="#434442" transform="translate(0,0)"/>
<path d="" fill="#363736" transform="translate(0,0)"/>
<path d="" fill="#434542" transform="translate(0,0)"/>
<path d="" fill="#3B3B3C" transform="translate(0,0)"/>
<path d="" fill="#3A3C3B" transform="translate(0,0)"/>
<path d="" fill="#3B3A3A" transform="translate(0,0)"/>
<path d="" fill="#444645" transform="translate(0,0)"/>
<path d="" fill="#3D3B3B" transform="translate(0,0)"/>
<path d="" fill="#3D3C3C" transform="translate(0,0)"/>
<path d="" fill="#403C3B" transform="translate(0,0)"/>
<path d="" fill="#3D3C3A" transform="translate(0,0)"/>
<path d="" fill="#3E3D3A" transform="translate(0,0)"/>
<path d="" fill="#3B3A38" transform="translate(0,0)"/>
<path d="" fill="#383433" transform="translate(0,0)"/>
<path d="" fill="#3D3C3B" transform="translate(0,0)"/>
<path d="" fill="#393837" transform="translate(0,0)"/>
<path d="" fill="#3C3B39" transform="translate(0,0)"/>
<path d="" fill="#3E3D3B" transform="translate(0,0)"/>
<path d="" fill="#3F3E3D" transform="translate(0,0)"/>
<path d="" fill="#40403E" transform="translate(0,0)"/>
<path d="" fill="#413F3F" transform="translate(0,0)"/>
<path d="" fill="#3F403D" transform="translate(0,0)"/>
<path d="" fill="#403D3C" transform="translate(0,0)"/>
<path d="" fill="#383635" transform="translate(0,0)"/>
<path d="" fill="#383532" transform="translate(0,0)"/>
<path d="" fill="#383635" transform="translate(0,0)"/>
<path d="" fill="#3C3938" transform="translate(0,0)"/>
<path d="" fill="#3A3837" transform="translate(0,0)"/>
<path d="" fill="#3F3C3B" transform="translate(0,0)"/>
<path d="" fill="#413E3D" transform="translate(0,0)"/>
<path d="" fill="#403E3D" transform="translate(0,0)"/>
<path d="" fill="#3F3D3B" transform="translate(0,0)"/>
<path d="" fill="#413E3F" transform="translate(0,0)"/>
<path d="" fill="#3D3C3B" transform="translate(0,0)"/>
<path d="" fill="#42413F" transform="translate(0,0)"/>
<path d="" fill="#41403E" transform="translate(0,0)"/>
<path d="" fill="#3F3E3D" transform="translate(0,0)"/>
<path d="" fill="#393736" transform="translate(0,0)"/>
<path d="" fill="#3B3A3A" transform="translate(0,0)"/>
<path d="" fill="#393835" transform="translate(0,0)"/>
<path d="" fill="#3B3B3A" transform="translate(0,0)"/>
<path d="" fill="#383939" transform="translate(0,0)"/>
<path d="" fill="#444542" transform="translate(0,0)"/>
<path d="" fill="#3A3939" transform="translate(0,0)"/>
<path d="" fill="#3D3D3A" transform="translate(0,0)"/>
<path d="" fill="#3B3B3A" transform="translate(0,0)"/>
<path d="" fill="#353635" transform="translate(0,0)"/>
<path d="" fill="#434244" transform="translate(0,0)"/>
<path d="" fill="#353633" transform="translate(0,0)"/>
<path d="" fill="#3A3838" transform="translate(0,0)"/>
<path d="" fill="#393938" transform="translate(0,0)"/>
<path d="" fill="#383737" transform="translate(0,0)"/>
<path d="" fill="#353534" transform="translate(0,0)"/>
<path d="" fill="#333331" transform="translate(0,0)"/>
<path d="" fill="#343332" transform="translate(0,0)"/>
<path d="" fill="#3D3B3C" transform="translate(0,0)"/>
<path d="" fill="#3D3D3B" transform="translate(0,0)"/>
<path d="" fill="#353735" transform="translate(0,0)"/>
<path d="" fill="#444343" transform="translate(0,0)"/>
<path d="" fill="#393736" transform="translate(0,0)"/>
<path d="" fill="#373635" transform="translate(0,0)"/>
<path d="" fill="#434341" transform="translate(0,0)"/>
<path d="" fill="#3A3938" transform="translate(0,0)"/>
<path d="" fill="#393B3A" transform="translate(0,0)"/>
<path d="" fill="#3C3A3B" transform="translate(0,0)"/>
<path d="" fill="#464442" transform="translate(0,0)"/>
<path d="" fill="#3D3B3A" transform="translate(0,0)"/>
<path d="" fill="#3D3A3C" transform="translate(0,0)"/>
<path d="" fill="#353734" transform="translate(0,0)"/>
<path d="" fill="#393836" transform="translate(0,0)"/>
<path d="" fill="#373734" transform="translate(0,0)"/>
<path d="" fill="#363333" transform="translate(0,0)"/>
<path d="" fill="#363533" transform="translate(0,0)"/>
<path d="" fill="#3B3A3A" transform="translate(0,0)"/>
<path d="" fill="#363634" transform="translate(0,0)"/>
<path d="" fill="#363533" transform="translate(0,0)"/>
<path d="" fill="#3C3C3B" transform="translate(0,0)"/>
<path d="" fill="#3E3E3B" transform="translate(0,0)"/>
<path d="" fill="#434343" transform="translate(0,0)"/>
<path d="" fill="#313233" transform="translate(0,0)"/>
<path d="" fill="#343534" transform="translate(0,0)"/>
<path d="" fill="#424441" transform="translate(0,0)"/>
<path d="" fill="#323230" transform="translate(0,0)"/>
<path d="" fill="#353432" transform="translate(0,0)"/>
<path d="" fill="#333230" transform="translate(0,0)"/>
<path d="" fill="#444442" transform="translate(0,0)"/>
<path d="" fill="#363735" transform="translate(0,0)"/>
<path d="" fill="#3A3C3A" transform="translate(0,0)"/>
<path d="" fill="#444440" transform="translate(0,0)"/>
<path d="" fill="#373732" transform="translate(0,0)"/>
<path d="" fill="#383737" transform="translate(0,0)"/>
<path d="" fill="#3C3B3C" transform="translate(0,0)"/>
<path d="" fill="#3B3B3B" transform="translate(0,0)"/>
<path d="" fill="#373936" transform="translate(0,0)"/>
<path d="" fill="#3D3E3B" transform="translate(0,0)"/>
<path d="" fill="#3E3E3C" transform="translate(0,0)"/>
<path d="" fill="#434040" transform="translate(0,0)"/>
<path d="" fill="#393A37" transform="translate(0,0)"/>
<path d="" fill="#383935" transform="translate(0,0)"/>
<path d="" fill="#393837" transform="translate(0,0)"/>
<path d="" fill="#3A3A39" transform="translate(0,0)"/>
<path d="" fill="#3B3B3A" transform="translate(0,0)"/>
<path d="" fill="#383838" transform="translate(0,0)"/>
<path d="" fill="#323330" transform="translate(0,0)"/>
<path d="" fill="#313130" transform="translate(0,0)"/>
<path d="" fill="#313030" transform="translate(0,0)"/>
<path d="" fill="#3B3B3B" transform="translate(0,0)"/>
<path d="" fill="#414241" transform="translate(0,0)"/>
<path d="" fill="#363736" transform="translate(0,0)"/>
<path d="" fill="#3B3C38" transform="translate(0,0)"/>
<path d="" fill="#3F3D3D" transform="translate(0,0)"/>
<path d="" fill="#404340" transform="translate(0,0)"/>
<path d="" fill="#40403E" transform="translate(0,0)"/>
<path d="" fill="#494846" transform="translate(0,0)"/>
<path d="" fill="#474645" transform="translate(0,0)"/>
<path d="" fill="#484643" transform="translate(0,0)"/>
<path d="" fill="#333232" transform="translate(0,0)"/>
<path d="" fill="#474645" transform="translate(0,0)"/>
<path d="" fill="#403F3E" transform="translate(0,0)"/>
<path d="" fill="#474643" transform="translate(0,0)"/>
<path d="" fill="#3A3D39" transform="translate(0,0)"/>
<path d="" fill="#343331" transform="translate(0,0)"/>
<path d="" fill="#393D3A" transform="translate(0,0)"/>
<path d="" fill="#3C3939" transform="translate(0,0)"/>
<path d="" fill="#393837" transform="translate(0,0)"/>
<path d="" fill="#444343" transform="translate(0,0)"/>
<path d="" fill="#424140" transform="translate(0,0)"/>
<path d="" fill="#434043" transform="translate(0,0)"/>
<path d="" fill="#383837" transform="translate(0,0)"/>
<path d="" fill="#423F40" transform="translate(0,0)"/>
<path d="" fill="#3C3D3A" transform="translate(0,0)"/>
<path d="" fill="#3E3D3C" transform="translate(0,0)"/>
<path d="" fill="#454543" transform="translate(0,0)"/>
<path d="" fill="#434342" transform="translate(0,0)"/>
<path d="" fill="#464443" transform="translate(0,0)"/>
<path d="" fill="#444645" transform="translate(0,0)"/>
<path d="" fill="#464543" transform="translate(0,0)"/>
<path d="" fill="#444442" transform="translate(0,0)"/>
<path d="" fill="#444443" transform="translate(0,0)"/>
<path d="" fill="#474845" transform="translate(0,0)"/>
<path d="" fill="#40403D" transform="translate(0,0)"/>
<path d="" fill="#403E3E" transform="translate(0,0)"/>
<path d="" fill="#3F3F3B" transform="translate(0,0)"/>
<path d="" fill="#3C3C3B" transform="translate(0,0)"/>
<path d="" fill="#474545" transform="translate(0,0)"/>
<path d="" fill="#3C3C3B" transform="translate(0,0)"/>
<path d="" fill="#3B3A3A" transform="translate(0,0)"/>
<path d="" fill="#444545" transform="translate(0,0)"/>
<path d="" fill="#3D3E3E" transform="translate(0,0)"/>
<path d="" fill="#3E3C39" transform="translate(0,0)"/>
<path d="" fill="#3F3F3E" transform="translate(0,0)"/>
<path d="" fill="#3A3A3B" transform="translate(0,0)"/>
<path d="" fill="#3E3D3C" transform="translate(0,0)"/>
<path d="" fill="#424341" transform="translate(0,0)"/>
<path d="" fill="#3F3F3E" transform="translate(0,0)"/>
<path d="" fill="#444443" transform="translate(0,0)"/>
<path d="" fill="#403E3B" transform="translate(0,0)"/>
<path d="" fill="#41403E" transform="translate(0,0)"/>
<path d="" fill="#403F40" transform="translate(0,0)"/>
<path d="" fill="#3D3C3E" transform="translate(0,0)"/>
<path d="" fill="#3E3F40" transform="translate(0,0)"/>
<path d="" fill="#444645" transform="translate(0,0)"/>
<path d="" fill="#3E3F3B" transform="translate(0,0)"/>
<path d="" fill="#464646" transform="translate(0,0)"/>
<path d="" fill="#3E403E" transform="translate(0,0)"/>
<path d="" fill="#454342" transform="translate(0,0)"/>
<path d="" fill="#413F3F" transform="translate(0,0)"/>
<path d="" fill="#3E3D40" transform="translate(0,0)"/>
<path d="" fill="#4B4B4A" transform="translate(0,0)"/>
<path d="" fill="#454544" transform="translate(0,0)"/>
<path d="" fill="#454543" transform="translate(0,0)"/>
<path d="" fill="#474745" transform="translate(0,0)"/>
<path d="" fill="#42403F" transform="translate(0,0)"/>
<path d="" fill="#403E3C" transform="translate(0,0)"/>
<path d="" fill="#3E3F3F" transform="translate(0,0)"/>
<path d="" fill="#3C3C3C" transform="translate(0,0)"/>
<path d="" fill="#3F3D3C" transform="translate(0,0)"/>
<path d="" fill="#393838" transform="translate(0,0)"/>
<path d="" fill="#3B3B38" transform="translate(0,0)"/>
<path d="" fill="#3A3939" transform="translate(0,0)"/>
<path d="" fill="#393839" transform="translate(0,0)"/>
<path d="" fill="#393837" transform="translate(0,0)"/>
<path d="" fill="#363835" transform="translate(0,0)"/>
<path d="" fill="#333532" transform="translate(0,0)"/>
<path d="" fill="#393736" transform="translate(0,0)"/>
<path d="" fill="#363734" transform="translate(0,0)"/>
<path d="" fill="#393A36" transform="translate(0,0)"/>
<path d="" fill="#3B3D3B" transform="translate(0,0)"/>
<path d="" fill="#383637" transform="translate(0,0)"/>
<path d="" fill="#383837" transform="translate(0,0)"/>
<path d="" fill="#383836" transform="translate(0,0)"/>
<path d="" fill="#373938" transform="translate(0,0)"/>
<path d="" fill="#383938" transform="translate(0,0)"/>
<path d="" fill="#3B3C39" transform="translate(0,0)"/>
<path d="" fill="#363333" transform="translate(0,0)"/>
<path d="" fill="#3E3E3D" transform="translate(0,0)"/>
<path d="" fill="#3E3D3C" transform="translate(0,0)"/>
<path d="" fill="#363735" transform="translate(0,0)"/>
<path d="" fill="#333333" transform="translate(0,0)"/>
<path d="" fill="#3C3C3A" transform="translate(0,0)"/>
<path d="" fill="#383536" transform="translate(0,0)"/>
<path d="" fill="#3A3837" transform="translate(0,0)"/>
<path d="" fill="#363533" transform="translate(0,0)"/>
<path d="" fill="#3C3C3A" transform="translate(0,0)"/>
<path d="" fill="#353433" transform="translate(0,0)"/>
<path d="" fill="#343436" transform="translate(0,0)"/>
<path d="" fill="#393936" transform="translate(0,0)"/>
<path d="" fill="#363737" transform="translate(0,0)"/>
<path d="" fill="#373535" transform="translate(0,0)"/>
<path d="" fill="#383839" transform="translate(0,0)"/>
<path d="" fill="#373A39" transform="translate(0,0)"/>
<path d="" fill="#383A38" transform="translate(0,0)"/>
<path d="" fill="#373534" transform="translate(0,0)"/>
<path d="" fill="#3A3A37" transform="translate(0,0)"/>
<path d="" fill="#373735" transform="translate(0,0)"/>
<path d="" fill="#343432" transform="translate(0,0)"/>
<path d="" fill="#343633" transform="translate(0,0)"/>
<path d="" fill="#383735" transform="translate(0,0)"/>
<path d="" fill="#333232" transform="translate(0,0)"/>
<path d="" fill="#343637" transform="translate(0,0)"/>
<path d="" fill="#343532" transform="translate(0,0)"/>
<path d="" fill="#363837" transform="translate(0,0)"/>
<path d="" fill="#363734" transform="translate(0,0)"/>
<path d="" fill="#3C3B3B" transform="translate(0,0)"/>
<path d="" fill="#3A3939" transform="translate(0,0)"/>
<path d="" fill="#363736" transform="translate(0,0)"/>
<path d="" fill="#323031" transform="translate(0,0)"/>
<path d="" fill="#373837" transform="translate(0,0)"/>
<path d="" fill="#393A38" transform="translate(0,0)"/>
<path d="" fill="#2F2D2E" transform="translate(0,0)"/>
<path d="" fill="#2D2E2E" transform="translate(0,0)"/>
<path d="" fill="#3A3736" transform="translate(0,0)"/>
<path d="" fill="#3A3B38" transform="translate(0,0)"/>
<path d="" fill="#393937" transform="translate(0,0)"/>
<path d="" fill="#393938" transform="translate(0,0)"/>
<path d="" fill="#3B3A39" transform="translate(0,0)"/>
<path d="" fill="#2E2D2D" transform="translate(0,0)"/>
<path d="" fill="#31302F" transform="translate(0,0)"/>
<path d="" fill="#31302E" transform="translate(0,0)"/>
<path d="" fill="#3A3B39" transform="translate(0,0)"/>
<path d="" fill="#383A36" transform="translate(0,0)"/>
<path d="" fill="#383938" transform="translate(0,0)"/>
<path d="" fill="#373735" transform="translate(0,0)"/>
<path d="" fill="#383A37" transform="translate(0,0)"/>
<path d="" fill="#3D3D3A" transform="translate(0,0)"/>
<path d="" fill="#383736" transform="translate(0,0)"/>
<path d="" fill="#393836" transform="translate(0,0)"/>
<path d="" fill="#3F3D3B" transform="translate(0,0)"/>
<path d="" fill="#3A3B3A" transform="translate(0,0)"/>
<path d="" fill="#383A3A" transform="translate(0,0)"/>
<path d="" fill="#3B3C38" transform="translate(0,0)"/>
<path d="" fill="#3B3838" transform="translate(0,0)"/>
<path d="" fill="#393B39" transform="translate(0,0)"/>
<path d="" fill="#383838" transform="translate(0,0)"/>
<path d="" fill="#3A3D3D" transform="translate(0,0)"/>
<path d="" fill="#393A37" transform="translate(0,0)"/>
<path d="" fill="#393937" transform="translate(0,0)"/>
<path d="" fill="#3A3A37" transform="translate(0,0)"/>
<path d="" fill="#383837" transform="translate(0,0)"/>
<path d="" fill="#393A39" transform="translate(0,0)"/>
<path d="" fill="#393939" transform="translate(0,0)"/>
<path d="" fill="#393A39" transform="translate(0,0)"/>
<path d="" fill="#3E3E3C" transform="translate(0,0)"/>
<path d="" fill="#3F3F40" transform="translate(0,0)"/>
<path d="" fill="#3B3937" transform="translate(0,0)"/>
<path d="" fill="#383838" transform="translate(0,0)"/>
<path d="" fill="#353132" transform="translate(0,0)"/>
<path d="" fill="#3B393A" transform="translate(0,0)"/>
<path d="" fill="#383C39" transform="translate(0,0)"/>
<path d="" fill="#383738" transform="translate(0,0)"/>
<path d="" fill="#3F3E3B" transform="translate(0,0)"/>
<path d="" fill="#383638" transform="translate(0,0)"/>
<path d="" fill="#383839" transform="translate(0,0)"/>
<path d="" fill="#393937" transform="translate(0,0)"/>
<path d="" fill="#383838" transform="translate(0,0)"/>
<path d="" fill="#383737" transform="translate(0,0)"/>
<path d="" fill="#373738" transform="translate(0,0)"/>
<path d="" fill="#3A3A37" transform="translate(0,0)"/>
<path d="" fill="#3B3B39" transform="translate(0,0)"/>
<path d="" fill="#373838" transform="translate(0,0)"/>
<path d="" fill="#373938" transform="translate(0,0)"/>
<path d="" fill="#3B3D39" transform="translate(0,0)"/>
<path d="" fill="#393B3A" transform="translate(0,0)"/>
<path d="" fill="#3A3A39" transform="translate(0,0)"/>
<path d="" fill="#393739" transform="translate(0,0)"/>
<path d="" fill="#393839" transform="translate(0,0)"/>
</svg>
